<svg viewBox="0 0 36 36" xmlns="http://www.w3.org/2000/svg"><rect x="6" y="6" width="3" height="3" fill="#10181C"/><rect x="9" y="6" width="3" height="3" fill="#10181C"/><rect x="24" y="6" width="3" height="3" fill="#10181C"/><rect x="27" y="6" width="3" height="3" fill="#10181C"/><rect x="3" y="9" width="3" height="3" fill="#10181C"/><rect x="6" y="9" width="3" height="3" fill="#10181C"/><rect x="9" y="9" width="3" height="3" fill="#10181C"/><rect x="12" y="9" width="3" height="3" fill="#10181C"/><rect x="21" y="9" width="3" height="3" fill="#10181C"/><rect x="24" y="9" width="3" height="3" fill="#10181C"/><rect x="27" y="9" width="3" height="3" fill="#10181C"/><rect x="30" y="9" width="3" height="3" fill="#10181C"/><rect x="0" y="12" width="3" height="3" fill="#10181C"/><rect x="3" y="12" width="3" height="3" fill="#10181C"/><rect x="12" y="12" width="3" height="3" fill="#10181C"/><rect x="15" y="12" width="3" height="3" fill="#10181C"/><rect x="18" y="12" width="3" height="3" fill="#10181C"/><rect x="21" y="12" width="3" height="3" fill="#10181C"/><rect x="30" y="12" width="3" height="3" fill="#10181C"/><rect x="33" y="12" width="3" height="3" fill="#10181C"/><rect x="0" y="15" width="3" height="3" fill="#10181C"/><rect x="12" y="15" width="3" height="3" fill="#10181C"/><rect x="15" y="15" width="3" height="3" fill="#10181C"/><rect x="27" y="15" width="3" height="3" fill="#10181C"/><rect x="0" y="18" width="3" height="3" fill="#10181C"/><rect x="9" y="18" width="3" height="3" fill="#10181C"/><rect x="18" y="18" width="3" height="3" fill="#10181C"/><rect x="27" y="18" width="3" height="3" fill="#10181C"/><rect x="0" y="21" width="3" height="3" fill="#10181C"/><rect x="6" y="21" width="3" height="3" fill="#10181C"/><rect x="21" y="21" width="3" height="3" fill="#10181C"/><rect x="27" y="21" width="3" height="3" fill="#10181C"/><rect x="0" y="24" width="3" height="3" fill="#10181C"/><rect x="3" y="24" width="3" height="3" fill="#10181C"/><rect x="24" y="24" width="3" height="3" fill="#10181C"/><rect x="27" y="24" width="3" height="3" fill="#10181C"/><rect x="3" y="27" width="3" height="3" fill="#10181C"/><rect x="24" y="27" width="3" height="3" fill="#10181C"/></svg>